<svg xmlns="http://www.w3.org/2000/svg" viewBox="0 0 32 32">
  <!-- Dark circle background -->
  <circle cx="16" cy="16" r="16" fill="#111111"/>

  <!-- Carrot body: wide at top, tapers to a rounded point at bottom -->
  <path d="M13 14 C10.5 15.5 10 19 11.5 23 L14.5 27 C15 28 17 28 17.5 27 L20.5 23 C22 19 21.5 15.5 19 14 C17.5 12.5 14.5 12.5 13 14Z" fill="white"/>

  <!-- Left leaf -->
  <path d="M14 14.5 C12.5 11.5 9.5 10.5 8.5 12.5 C10.5 12.5 12.5 13.5 14 14.5Z" fill="white" opacity="0.8"/>

  <!-- Center leaf (tallest) -->
  <path d="M16 13.5 C15.5 10 15 7.5 15 7.5 C14 9.5 14 12 15.5 13.5Z" fill="white"/>

  <!-- Right leaf -->
  <path d="M18 14.5 C19.5 11.5 22.5 10.5 23.5 12.5 C21.5 12.5 19.5 13.5 18 14.5Z" fill="white" opacity="0.8"/>
</svg>
